<svg xmlns="http://www.w3.org/2000/svg" viewBox="0 0 33.25 45.09"><defs><style>.cls-1{fill:#1b98bc;}</style></defs><title>Asset 4</title><g id="Layer_2" data-name="Layer 2"><g id="Layer_1-2" data-name="Layer 1"><g id="レイアウト"><path class="cls-1" d="M32.38,5.88a9.91,9.91,0,0,0-5.11-4.15A28.49,28.49,0,0,0,16.61,0C10.45,0,6.37,1.16,3.74,2.89a8.81,8.81,0,0,0-2.87,3A6.71,6.71,0,0,0,0,9.16V32a6.51,6.51,0,0,0,6.37,6.65H8.24l-4.4,6.45H7.35L8.41,43.3H24.85l1,1.79h3.52L25,38.64h1.87A6.51,6.51,0,0,0,33.25,32V9.16A6.57,6.57,0,0,0,32.38,5.88Zm-23,35.7,1.11-1.83H22.75l1.05,1.83ZM31.22,32a4.44,4.44,0,0,1-4.33,4.52H6.37A4.43,4.43,0,0,1,2,32V9.16a4.4,4.4,0,0,1,.6-2.22,7.92,7.92,0,0,1,4.1-3.27,25.68,25.68,0,0,1,9.87-1.54c5.93,0,9.65,1.15,11.8,2.56A6.64,6.64,0,0,1,30.62,7a4.49,4.49,0,0,1,.6,2.21Z"/><path class="cls-1" d="M11,8.94H22.28a1.42,1.42,0,0,0,0-2.84H11a1.42,1.42,0,0,0,0,2.84Z"/><path class="cls-1" d="M8.53,29.16a1.78,1.78,0,1,0,1.7,1.78h0A1.74,1.74,0,0,0,8.53,29.16Z"/><path class="cls-1" d="M24.72,29.16a1.78,1.78,0,1,0,1.7,1.78h0A1.74,1.74,0,0,0,24.72,29.16Z"/><rect class="cls-1" x="6.17" y="13.53" width="9.07" height="8.66"/><rect class="cls-1" x="17.62" y="13.53" width="9.47" height="8.66"/></g></g></g></svg>