<svg xmlns="http://www.w3.org/2000/svg" viewBox="0 0 75.75 69.13"><defs><style>.cls-1{fill:#1b98bc;}</style></defs><title>Asset 2</title><g id="Layer_2" data-name="Layer 2"><g id="レイアウト"><path class="cls-1" d="M0,0V50.75H75.75V0ZM68.4,43.39h-61v-36H68.4Z"/><path class="cls-1" d="M44.41,54.18H31.34s0,8.88-8.1,8.88v6.07H52.51V63.06C44.41,63.06,44.41,54.18,44.41,54.18Z"/><path class="cls-1" d="M32.11,34.69a.29.29,0,0,0,.3,0L45.24,27a.31.31,0,0,0,.14-.25.31.31,0,0,0-.14-.26L32.41,18.85a.32.32,0,0,0-.3,0,.32.32,0,0,0-.16.27V34.43A.29.29,0,0,0,32.11,34.69Z"/></g></g></svg>