<svg xmlns="http://www.w3.org/2000/svg" viewBox="0 0 66.67 69.81"><defs><style>.cls-1{fill:#1b98bc;}</style></defs><title>Asset 3</title><g id="Layer_2" data-name="Layer 2"><g id="レイアウト"><path class="cls-1" d="M18.12,0C8.11,0,0,4,0,8.82v4.72c0,4.87,8.11,8.82,18.12,8.82s18.11-3.95,18.11-8.82V8.82C36.23,4,28.12,0,18.12,0Zm0,3.66c8.82,0,14.45,3.39,14.45,5.16S26.94,14,18.12,14,3.67,10.6,3.67,8.82,9.29,3.66,18.12,3.66Z"/><path class="cls-1" d="M18.11,29.45a33.79,33.79,0,0,0,9.19-1.22,25.4,25.4,0,0,0-6.21,8.26c-1,.08-2,.12-3,.12-10,0-18.11-4-18.11-8.83V22.25a.18.18,0,0,1,.16-.18s.09,0,.12.05,0,.07.12.37C2.16,26.47,9.42,29.45,18.11,29.45Z"/><path class="cls-1" d="M18.62,47.46a22.54,22.54,0,0,0,.21,3.2h-.72c-10,0-18.11-4-18.11-8.82V36.3a.18.18,0,0,1,.16-.17.16.16,0,0,1,.15.09c0-.06-.09-.09.09.34,1.76,4,9,7,17.71,7a7.49,7.49,0,0,0,.82,0A24.82,24.82,0,0,0,18.62,47.46Z"/><path class="cls-1" d="M24.77,64.12a34.18,34.18,0,0,1-6.66.62C8.11,64.74,0,60.79,0,55.91V50.37a.17.17,0,0,1,.16-.17.13.13,0,0,1,.15.09c0-.06-.1-.11.09.32,1.76,4,9,7,17.71,7,.86,0,1.72,0,2.55-.08A25.34,25.34,0,0,0,24.77,64.12Z"/><polygon class="cls-1" points="51.32 46.02 46.49 46.02 45.98 46.82 45.98 48.75 51.32 48.75 51.32 48.76 51.32 51.1 51.32 51.49 45.98 51.49 45.98 55.63 42.66 55.63 42.66 51.49 37.32 51.49 37.32 51.1 37.32 48.76 37.32 48.75 42.66 48.75 42.66 46.83 42.14 46.02 37.32 46.02 37.32 43.68 40.64 43.68 37.82 39.29 40.63 39.29 44.32 45.03 48.01 39.29 50.82 39.29 48 43.68 51.32 43.68 51.32 46.02"/><path class="cls-1" d="M44.32,30.7A16.76,16.76,0,1,1,27.56,47.46,16.78,16.78,0,0,1,44.32,30.7m0-5.59A22.35,22.35,0,1,0,66.67,47.46,22.35,22.35,0,0,0,44.32,25.11Z"/></g></g></svg>