<svg xmlns="http://www.w3.org/2000/svg" viewBox="0 0 80.82 77"><defs><style>.cls-1{fill:#1b98bc;}</style></defs><title>Asset 4</title><g id="Layer_2" data-name="Layer 2"><g id="レイアウト"><rect class="cls-1" y="69.59" width="80.82" height="7.41"/><path class="cls-1" d="M28.26,19.15s7.36,1.48,16.94-8.1a91.44,91.44,0,0,0,7.36,8.84v8.84a16.94,16.94,0,1,0-24.3,0Z"/><path class="cls-1" d="M51.77,38.7c-1.19.65-11.36,23-11.36,23s-10.17-22.34-11.36-23c-11.46,4.13-12,13.39-12,27.92H63.74C63.74,52.09,63.23,42.83,51.77,38.7Z"/><polygon class="cls-1" points="35.34 37.7 35.34 44.47 40.41 42.74 45.48 44.47 45.48 37.7 40.41 39.43 35.34 37.7"/></g></g></svg>